HIERARCHY
ROOT Hips
{
	OFFSET 0.000000 0.000000 0.000000
	CHANNELS 6 Xposition Yposition Zposition Zrotation Yrotation Xrotation 
	JOINT LHipJoint
	{
		OFFSET 0.000000 0.000000 0.000000
		CHANNELS 3 Zrotation Yrotation Xrotation
		JOINT LeftUpLeg
		{
			OFFSET 1.363060 -1.794630 0.839290
			CHANNELS 3 Zrotation Yrotation Xrotation
			JOINT LeftLeg
			{
				OFFSET 2.448110 -6.726130 0.000000
				CHANNELS 3 Zrotation Yrotation Xrotation
				JOINT LeftFoot
				{
					OFFSET 2.562200 -7.039590 0.000000
					CHANNELS 3 Zrotation Yrotation Xrotation
					JOINT LeftToeBase
					{
						OFFSET 0.157640 -0.433110 2.322550
						CHANNELS 3 Zrotation Yrotation Xrotation
						End Site
						{
							OFFSET 0.000000 0.000000 0.000000
						}
					}
				}
			}
		}
	}
	JOINT RHipJoint
	{
		OFFSET 0.000000 0.000000 0.000000
		CHANNELS 3 Zrotation Yrotation Xrotation
		JOINT RightUpLeg
		{
			OFFSET -1.305520 -1.794630 0.839290
			CHANNELS 3 Zrotation Yrotation Xrotation
			JOINT RightLeg
			{
				OFFSET -2.542530 -6.985550 0.000000
				CHANNELS 3 Zrotation Yrotation Xrotation
				JOINT RightFoot
				{
					OFFSET -2.568260 -7.056230 0.000000
					CHANNELS 3 Zrotation Yrotation Xrotation
					JOINT RightToeBase
					{
						OFFSET -0.164730 -0.452590 2.363150
						CHANNELS 3 Zrotation Yrotation Xrotation
						End Site
						{
							OFFSET 0.000000 0.000000 0.000000
						}
					}
				}
			}
		}
	}
	JOINT LowerBack
	{
		OFFSET 0.000000 0.000000 0.000000
		CHANNELS 3 Zrotation Yrotation Xrotation
		JOINT Spine
		{
			OFFSET 0.028270 2.035590 -0.193380
			CHANNELS 3 Zrotation Yrotation Xrotation
			JOINT Spine1
			{
				OFFSET 0.056720 2.048850 -0.042750
				CHANNELS 3 Zrotation Yrotation Xrotation
				JOINT Neck
				{
					OFFSET 0.000000 0.000000 0.000000
					CHANNELS 3 Zrotation Yrotation Xrotation
					JOINT Neck1
					{
						OFFSET -0.054170 1.746240 0.172020
						CHANNELS 3 Zrotation Yrotation Xrotation
						JOINT Head
						{
							OFFSET 0.104070 1.761360 -0.123970
							CHANNELS 3 Zrotation Yrotation Xrotation
							End Site
							{
								OFFSET 0.000000 0.000000 0.000000
							}
						}
					}
				}
				JOINT LeftShoulder
				{
					OFFSET 0.000000 0.000000 0.000000
					CHANNELS 3 Zrotation Yrotation Xrotation
					JOINT LeftArm
					{
						OFFSET 3.362410 1.200890 -0.311210
						CHANNELS 3 Zrotation Yrotation Xrotation
						JOINT LeftForeArm
						{
							OFFSET 4.983000 -0.000000 -0.000000
							CHANNELS 3 Zrotation Yrotation Xrotation
							JOINT LeftHand
							{
								OFFSET 3.483560 -0.000000 -0.000000
								CHANNELS 3 Zrotation Yrotation Xrotation
								JOINT LeftFingerBase
								{
									OFFSET 0.000000 0.000000 0.000000
									CHANNELS 3 Zrotation Yrotation Xrotation
									JOINT LeftHandIndex1
									{
										OFFSET 0.715260 -0.000000 -0.000000
										CHANNELS 3 Zrotation Yrotation Xrotation
										End Site
										{
											OFFSET 0.000000 0.000000 0.000000
										}
									}
								}
								JOINT LThumb
								{
									OFFSET 0.000000 0.000000 0.000000
									CHANNELS 3 Zrotation Yrotation Xrotation
									End Site
									{
										OFFSET 0.000000 0.000000 0.000000
									}
								}
							}
						}
					}
				}
				JOINT RightShoulder
				{
					OFFSET 0.000000 0.000000 0.000000
					CHANNELS 3 Zrotation Yrotation Xrotation
					JOINT RightArm
					{
						OFFSET -3.136600 1.374050 -0.404650
						CHANNELS 3 Zrotation Yrotation Xrotation
						JOINT RightForeArm
						{
							OFFSET -5.241900 -0.000000 -0.000000
							CHANNELS 3 Zrotation Yrotation Xrotation
							JOINT RightHand
							{
								OFFSET -3.444170 -0.000000 -0.000000
								CHANNELS 3 Zrotation Yrotation Xrotation
								JOINT RightFingerBase
								{
									OFFSET 0.000000 0.000000 0.000000
									CHANNELS 3 Zrotation Yrotation Xrotation
									JOINT RightHandIndex1
									{
										OFFSET -0.622530 -0.000000 -0.000000
										CHANNELS 3 Zrotation Yrotation Xrotation
										End Site
										{
											OFFSET 0.000000 0.000000 0.000000
										}
									}
								}
								JOINT RThumb
								{
									OFFSET 0.000000 0.000000 0.000000
									CHANNELS 3 Zrotation Yrotation Xrotation
									End Site
									{
										OFFSET 0.000000 0.000000 0.000000
									}
								}
							}
						}
					}
				}
			}
		}
	}
}
MOTION
Frames: 10
Frame Time: 0.008333
8.216056 17.325413 -43.537266 -3.776462 -3.101599 8.220785 1.327614 -1.488998 -2.453454 -12.251300 2.826108 -37.186259 6.821445 18.284891 52.032532 -4.052582 13.695931 5.172157 0.376300 -3.939800 -10.907300 0.644910 -0.349313 0.779156 25.350901 9.083960 -11.487004 1.655018 -7.954818 23.063900 -2.021101 4.576814 0.791285 -0.160700 2.583200 -7.120400 2.745347 1.601363 0.354300 1.006480 1.749565 -5.295432 3.142876 1.272199 3.818588 -8.980675 -4.153809 -14.888165 5.633937 -3.719031 7.097611 5.547600 -2.016500 9.866400 -0.703063 -6.685165 -0.823842 -82.348175 14.901294 45.534138 13.764766 -23.813311 -3.896182 -0.184258 0.699644 -7.298851 12.550907 -18.911776 -4.312700 -7.125000 0.000000 0.000000 -10.115800 10.136200 8.311700 -0.360068 8.356977 0.892222 73.998580 -1.523686 44.808486 -23.345358 29.866265 -8.549240 2.524648 2.245679 -21.544600 -29.718100 -20.863720 13.323900 7.125000 0.000000 0.000000 -4.497100 -55.045400 1.111000
8.226060 17.323825 -43.391729 -3.565263 -3.403448 8.271402 1.158958 -1.566833 -2.529900 -12.434394 2.825211 -37.116389 6.032691 17.833514 49.840268 -4.003000 13.539299 5.114385 0.438911 -4.246593 -11.772058 0.650986 -0.372921 0.817806 25.085858 8.870259 -11.043547 1.652245 -7.902011 23.006066 -2.102858 4.843219 0.767008 -0.125536 2.276043 -6.269402 2.149200 1.670000 -0.144727 1.100129 1.788193 -5.196601 4.128004 1.257504 4.462631 -9.393172 -4.160746 -14.875304 5.488405 -3.623506 6.945116 5.444583 -1.991019 9.557495 -0.639357 -6.568752 -0.792813 -83.235097 14.804379 44.857143 13.193673 -23.358220 -3.705503 -0.064142 0.729540 -6.926098 10.619219 -19.633591 -3.719862 -7.125000 0.000000 0.000000 -11.434487 9.599567 9.573746 -0.179367 8.234307 1.008420 72.708138 -0.752839 45.437819 -23.652116 30.091020 -8.716405 2.521008 2.267627 -21.897831 -30.120047 -20.555768 13.352366 7.125000 0.000000 0.000000 -4.996240 -54.792845 1.202878
8.235766 17.343973 -43.237239 -3.222244 -3.718326 8.217167 1.001091 -1.626403 -2.575544 -12.767448 2.926506 -37.006033 5.236155 17.317882 47.538118 -4.008397 13.585439 5.456204 0.497554 -4.518634 -12.541133 0.723060 -0.413473 0.928538 24.578392 8.462864 -10.564733 1.658068 -7.813578 22.876324 -2.243493 5.312874 0.890772 -0.094613 1.972944 -5.431219 1.839283 1.761634 -0.273103 1.061674 1.899622 -5.175116 4.100402 1.328580 4.532257 -9.320364 -4.072556 -14.698239 5.417004 -3.531030 6.791476 5.380423 -1.938630 9.331960 -0.650062 -6.523586 -0.775268 -83.301295 15.251613 44.541326 12.946373 -23.064692 -3.573496 -0.199626 0.690037 -6.854575 12.065372 -18.572759 -4.020004 -7.125000 0.000000 0.000000 -10.386688 10.538036 8.510489 -0.178397 8.210370 1.049272 72.454905 -0.390031 45.812751 -23.964627 30.357635 -8.878642 2.529581 2.219271 -21.972098 -30.466153 -20.135183 13.242188 7.125000 0.000000 0.000000 -5.425100 -54.333282 1.244451
8.244410 17.370195 -43.080963 -2.835801 -4.033994 8.133341 0.844973 -1.682844 -2.619954 -13.087422 3.016679 -36.882186 4.435968 16.753360 45.123493 -4.072995 13.839427 6.104658 0.514544 -4.590693 -12.745935 0.822338 -0.462409 1.064770 23.987131 8.070094 -10.025231 1.678049 -7.690789 22.659319 -2.390363 5.798982 1.047907 -0.070068 1.705791 -4.693428 1.619418 1.865283 -0.286632 0.974979 2.043585 -5.176371 3.739910 1.428838 4.466350 -9.160792 -3.966423 -14.605410 5.438494 -3.427304 6.690169 5.404791 -1.871060 9.228767 -0.692898 -6.495669 -0.771928 -83.070996 15.854617 44.369263 12.875146 -22.894774 -3.484306 -0.449948 0.615876 -6.900768 15.036912 -16.696191 -4.690905 -7.125000 0.000000 0.000000 -8.260554 12.161891 6.411497 -0.251594 8.224990 1.056933 72.565445 -0.088067 46.033856 -24.246837 30.608784 -9.024921 2.539400 2.159638 -21.952417 -30.710722 -19.783069 13.114577 7.125000 0.000000 0.000000 -5.726332 -53.920289 1.258954
8.250445 17.376071 -42.935188 -2.553315 -4.329045 8.146822 0.675013 -1.762222 -2.714985 -13.104537 2.893946 -36.789810 3.638701 16.157604 42.570164 -4.215636 14.350247 6.955045 0.415459 -4.133124 -11.452147 0.885709 -0.506267 1.149338 23.575417 8.061801 -9.368722 1.724715 -7.529262 22.311185 -2.451917 5.975598 1.042804 -0.056890 1.537688 -4.229671 1.161310 1.963908 -0.613886 0.978509 2.155409 -5.108540 4.180192 1.464205 5.012060 -9.599921 -3.974879 -15.050770 5.603815 -3.284972 6.745501 5.622254 -1.806046 9.340156 -0.699560 -6.393181 -0.786800 -83.410704 15.959118 43.985572 12.753647 -22.805408 -3.418254 -0.589221 0.561592 -6.764025 16.563907 -15.550306 -4.883907 -7.125000 0.000000 0.000000 -7.117906 13.211788 5.349297 -0.227253 8.179569 1.099281 71.923325 0.753043 46.248697 -24.429384 30.740484 -9.132732 2.531378 2.190557 -22.146658 -30.753684 -19.831696 13.179736 7.125000 0.000000 0.000000 -5.774310 -54.009619 1.282106
8.253128 17.381108 -42.801490 -2.583178 -4.583564 8.280283 0.540185 -1.827218 -2.785301 -12.998620 2.982911 -36.713324 2.960936 15.598029 40.431897 -4.174336 14.283032 7.184805 0.313941 -3.582026 -9.905685 0.933949 -0.547719 1.205917 23.537880 8.240841 -8.698194 1.806444 -7.325367 21.809401 -2.435354 5.922198 1.080233 -0.044545 1.356974 -3.731728 1.048689 2.098731 -0.973688 0.989831 2.305389 -5.047021 4.497268 1.525858 5.531196 -9.940949 -4.016616 -15.443466 5.726886 -3.223259 6.838036 5.791641 -1.781300 9.465437 -0.706055 -6.297597 -0.795890 -83.627121 16.096416 43.590619 12.576227 -22.683403 -3.358256 -0.619217 0.568062 -6.473306 16.859139 -15.598246 -5.003993 -7.125000 0.000000 0.000000 -6.902092 13.122828 5.193253 -0.198185 8.128232 1.135388 71.336083 1.588631 46.347099 -24.629738 30.907564 -9.280625 2.526303 2.283682 -22.318288 -30.842092 -20.491301 13.665805 7.125000 0.000000 0.000000 -5.827280 -54.855306 1.414534
8.255873 17.388079 -42.668768 -2.684132 -4.790866 8.377820 0.418728 -1.894295 -2.864501 -12.833253 3.075061 -36.666358 2.327466 15.027409 38.306425 -4.219241 14.470034 7.559304 0.316105 -3.593590 -9.938108 0.982069 -0.583114 1.287773 23.565817 8.103984 -8.136535 1.889386 -7.108069 21.284698 -2.460814 6.059575 1.318830 -0.035775 1.219560 -3.353215 1.101623 2.224515 -1.175386 0.985271 2.447186 -5.008603 4.582889 1.600670 5.830788 -10.107578 -4.044324 -15.639088 5.812981 -3.204808 6.890147 5.904796 -1.772131 9.529184 -0.726738 -6.231793 -0.792479 -83.649740 16.279632 43.396873 12.305509 -22.423987 -3.269812 -0.628350 0.647249 -6.391293 16.992010 -16.709961 -5.402079 -7.125000 0.000000 0.000000 -6.861135 11.882306 5.339130 -0.194137 8.100631 1.161296 70.963860 2.234142 46.414735 -24.866299 31.117771 -9.456799 2.533808 2.365837 -22.368636 -31.094188 -21.218478 14.270988 7.125000 0.000000 0.000000 -6.064079 -55.798438 1.615055
8.259527 17.396558 -42.536260 -2.820176 -4.950761 8.428456 0.309711 -1.967146 -2.958866 -12.613287 3.132931 -36.665494 1.729452 14.444338 36.156267 -4.357447 14.949486 8.180425 0.416718 -4.140779 -11.473403 1.030378 -0.613087 1.399201 23.615401 7.640414 -7.680105 1.971414 -6.876225 20.738818 -2.534780 6.402771 1.734875 -0.029753 1.110246 -3.052252 1.276235 2.331162 -1.202032 0.967264 2.568380 -4.995102 4.469946 1.681333 5.897370 -10.127180 -4.055461 -15.638128 5.866065 -3.216929 6.893801 5.969128 -1.773720 9.528564 -0.758469 -6.198572 -0.777217 -83.534887 16.490876 43.336006 11.922604 -22.007435 -3.152259 -0.622812 0.825831 -6.509111 17.099286 -19.266422 -6.230451 -7.125000 0.000000 0.000000 -6.948598 9.064594 5.817613 -0.214348 8.102196 1.177643 70.785680 2.690656 46.478368 -25.130378 31.353570 -9.645743 2.553660 2.414868 -22.314995 -31.495131 -21.793702 14.844649 7.125000 0.000000 0.000000 -6.487115 -56.567213 1.844378
8.265800 17.401798 -42.409540 -3.005529 -5.066672 8.507311 0.227503 -2.051890 -3.074048 -12.307950 3.131731 -36.791890 1.185260 13.882247 34.127462 -4.393118 15.208844 8.945481 0.496292 -4.512077 -12.522717 1.067388 -0.644212 1.517941 23.716525 7.223663 -7.203676 2.070532 -6.597570 20.065646 -2.588772 6.670623 2.062657 -0.019560 0.896495 -2.464074 1.491729 2.402051 -1.122496 0.969742 2.640426 -5.002521 4.429887 1.739132 5.819398 -10.214075 -4.077110 -15.564619 5.902454 -3.223180 6.871453 6.031375 -1.781437 9.512401 -0.771550 -6.194283 -0.759265 -83.652340 16.620410 42.846676 11.352546 -21.412139 -3.031431 -0.558591 1.243931 -6.464221 16.995507 -25.534075 -8.035902 -7.125000 0.000000 0.000000 -7.573469 2.277793 7.340586 -0.229122 8.137743 1.191172 70.550206 3.121043 46.610564 -25.358505 31.511837 -9.772353 2.576452 2.371604 -22.336884 -31.863092 -21.475821 14.817785 7.125000 0.000000 0.000000 -6.957789 -56.232172 1.922132
8.276831 17.401256 -42.288001 -3.271109 -5.087250 8.628783 0.132505 -2.146142 -3.190167 -11.886500 3.005314 -36.853651 0.636820 13.265177 31.987584 -4.427107 15.488731 9.731427 0.495175 -4.510626 -12.518020 1.101985 -0.668230 1.630537 23.911455 6.837244 -6.777158 2.169964 -6.316530 19.375424 -2.602339 6.792086 2.347986 -0.018149 0.869312 -2.389315 1.787817 2.463394 -1.002250 0.986899 2.693771 -5.026120 4.419066 1.791122 5.648038 -10.275587 -4.107982 -15.489568 5.890477 -3.248563 6.885717 6.041650 -1.806165 9.541472 -0.768385 -6.201075 -0.792802 -83.801942 17.176632 42.227087 11.236328 -21.271125 -2.966062 -0.452348 1.061627 -6.064214 15.017857 -22.958921 -6.495124 -7.125000 0.000000 0.000000 -8.673430 5.339131 7.832247 -0.227342 8.181884 1.203529 70.267855 3.496874 46.692982 -25.589827 31.660139 -9.903300 2.593338 2.343982 -22.436676 -32.148574 -21.242396 14.803513 7.125000 0.000000 0.000000 -7.320764 -55.986493 1.979782
